<?xml version="1.0" encoding="utf-8"?>

<!DOCTYPE svg PUBLIC "-//W3C//DTD SVG 1.1//EN" "http://www.w3.org/Graphics/SVG/1.1/DTD/svg11.dtd">
<svg version="1.1" id="Layer_1" xmlns="http://www.w3.org/2000/svg" xmlns:xlink="http://www.w3.org/1999/xlink" x="0px" y="0px"
	 viewBox="216.191 141.1478 1406.809 1637.8308" enable-background="new 216.191 141.1478 1406.809 1637.8308" xml:space="preserve"
	>
<g>
	<path fill="#F7B136" d="M774.15,355.22c14.28-1.84,29.1,0.26,42.13,6.48c18.0099,8.43,32.39,24.22,39.15,42.92
		c4.57,12.19,5.75,25.51,4.07,38.39c-2.41,17.11-10.61,33.33-22.99,45.4c-10.17,10.01-23.19,17.1-37.13,20.15
		c-16.92,3.7-35.13,1.56-50.54-6.41c-14.05-7.16-25.77-18.8-33.01-32.81c-8.1-15.55-10.79-33.84-7.45-51.05
		c2.98-15.95,11.05-30.9,22.76-42.15C742.75,364.81,758.07,357.39,774.15,355.22 M765.7,370.72c-13.48,4.12-25.32,12.99-33.43,24.46
		c-4.65,3.48-7.53,9.06-7.8,14.85c-6.48,17.17-5.3,37.09,3.29,53.33c8.13,15.64,23.09,27.61,40.23,31.81
		c15.15,3.88,31.67,1.57,45.32-5.98c14.71-8.06,25.93-22.1,30.77-38.13c3.77-12.3,3.84-25.68,0.11-37.99
		c-4.73-16.21-16.22-30.28-31.19-38.1C798.63,367.33,781.21,365.83,765.7,370.72z"/>
	<path fill="#070306" d="M765.7,370.72c15.51-4.89,32.93-3.39,47.3,4.25c14.97,7.82,26.46,21.89,31.19,38.1
		c3.73,12.31,3.66,25.69-0.11,37.99c-4.84,16.03-16.06,30.07-30.77,38.13c-13.65,7.55-30.17,9.86-45.32,5.98
		c-17.14-4.2-32.1-16.17-40.23-31.81c-8.59-16.24-9.77-36.16-3.29-53.33c0.16,4.65,1.4901,9.39,4.71,12.88
		c4.87,5.77,13.55,7.78,20.48,4.81c7.02-2.8,11.86-10.19,11.59-17.75c0.09-7.48-4.93-14.66-11.96-17.18
		c-5.64-2.08-12.13-1.04-17.02,2.39C740.38,383.71,752.22,374.84,765.7,370.72z"/>
	<path fill="#F0F4F2" d="M732.27,395.18c4.89-3.43,11.38-4.47,17.02-2.39c7.03,2.52,12.05,9.7,11.96,17.18
		c0.27,7.56-4.57,14.95-11.59,17.75c-6.93,2.97-15.61,0.96-20.48-4.81c-3.22-3.49-4.55-8.23-4.71-12.88
		C724.74,404.24,727.62,398.66,732.27,395.18z"/>
	<path fill="#0084C7" d="M1593.79,694.9399c-8.98-37.7899-28.5-72.6299-54.3101-101.48c-23.97-26.9299-53.08-48.98-84.4399-66.6199
		c-33.91-19.05-70.53-33.03-108.12-42.8501c-9.9701-34.9199-22.9-69.05-39.66-101.29c-17.76-34.28-39.8-66.4299-66.17-94.6799
		c-26.99-29.01-58.5299-53.8301-93.2899-72.8701c-47.78-26.3499-101.41-41.6299-155.74-45.7799
		c-86.1401-6.64-173.7101,13.76-249.16,55.52c-66.8,36.86-124.41,91.1-162.87,157.1899c-0.8101,1.05-1.2,2.8199-2.75,2.9801
		C504.27,398.79,432.33,422.6499,368.95,462c-32.93,20.62-63.53,45.7-87.4,76.54c-20.0099,25.8199-34.95,56.11-40.07,88.55
		c-3.65,22.5199-2.53,45.7699,3.14,67.8499c5.51,21.6801,15.29,42.1501,27.76,60.67c19.01,28.28,44.03,52.03,71.33,72.21
		c1.48,25.67,4.67,51.23,9.48,76.48c0.22,1.22,0.41,2.45,0.59,3.69c19.73,99.33,62.43,194,123.82,274.54
		c47.02,61.6899,105.43,115.12,172.79,153.87c17.95,10.2899,36.48,19.58,55.5299,27.6699
		C783.27,1397.21,869.25,1409.7,952.85,1400.38c17.77-1.79,35.4701-4.1901,53.09-7.0601
		c34.8501-5.6899,69.3601-13.5699,103.1201-23.9199c75.8899-23.13,148.3199-59.17,210.0299-109.3101
		c63.64-51.4099,115.25-117.9,147.89-193.02c16.54-37.6899,28.1801-77.46,35.22-117.9899c9.6901-9.94,19.55-19.8,28.38-30.55
		c25.64-30.47,46.51-65.3701,58.4501-103.4901C1601.28,776.39,1603.42,734.4099,1593.79,694.9399z M1062.0098,449.4886
		c-1.1924,1.3378-2.3247,2.7275-3.3597,4.2013C1059.6851,452.2161,1060.8174,450.8263,1062.0098,449.4886z M1056.12,468.99
		c11.36-23.6,35.24-40.8201,61.4401-43.23c19.1-2.1101,38.8999,3.58,54.0099,15.45c11.55,8.9399,20.42,21.27,25.27,35.05
		c6.79,19.03,5.91,40.6799-2.48,59.0701c-7.73,17.1499-21.77,31.4199-38.95,39.1199c-16.6,7.54-35.9401,8.8201-53.36,3.46
		c-17.2001-5.21-32.29-16.8599-41.88-32.0399C1045.6,523.23,1044.09,493.04,1056.12,468.99z M843.1477,379.8613
		c-4.9912-5.905-10.8319-11.0735-17.38-15.2083C832.3158,368.7878,838.1565,373.9561,843.1477,379.8613z M708.38,418.29
		c2.98-15.9501,11.0499-30.9,22.76-42.15c11.61-11.33,26.9301-18.75,43.01-20.92c14.2799-1.84,29.1,0.26,42.13,6.48
		c18.01,8.4301,32.3899,24.22,39.1499,42.92c4.5701,12.1901,5.75,25.51,4.0701,38.39c-2.4099,17.11-10.61,33.33-22.99,45.3999
		c-10.1699,10.01-23.1899,17.1001-37.13,20.1501c-16.92,3.7-35.13,1.5599-50.5399-6.4102c-14.05-7.1599-25.77-18.7999-33.01-32.8099
		C707.73,453.79,705.04,435.5,708.38,418.29z M830.8057,495.9922c-1.1544,0.8962-2.3403,1.7504-3.5428,2.5798
		C828.4653,497.7424,829.6511,496.8884,830.8057,495.9922z M790.8538,524.3247c-2.2987,0.2526-4.6018,0.4268-6.905,0.4919
		C786.252,524.7513,788.5551,524.5773,790.8538,524.3247z M1296.0601,886.03c-16.8201,35.41-42.13,65.85-68.3,94.6899
		c-11.6801,12-23.49,23.8701-35.5,35.55c-27.13,25.4-55.73,49.26-85.65,71.33c-30.8099,22.8-62.86,43.98-96.36,62.64
		c-32.5901,18.02-66.5,34.12-102.37,44.48c-19.13,5.35-38.98,9.12-58.92,8.11c-19.33-1.3099-37.76-8.2899-54.96-16.85
		c-33.77-17.61-63.6699-41.72-91.3-67.73c-24.47-23.5601-47.61-48.54-68.67-75.21C606.48,1008.75,581.6,972.3,559.98,933.99
		c-13.46-23.62-25.35-48.13-35.55-73.33c-13.3-33.77-23.83-69.18-25.36-105.65c-1.75-36.21,10.33-72.3201,31.2-101.6899
		c18.47-25.5601,43.34-45.98,70.71-61.4102c35.71-20.0999,75.25-32.6699,115.3301-40.5299c42.0399-8.12,84.99-11.3099,127.77-10.36
		l0.73,0.6699c34.46-28,68.84-56.11,103.22-84.2c20.1699,35.24,40.49,70.39,60.73,105.5901c23.58,5.47,46.54,13.2799,69.36,21.2899
		c8.1901,2.92,16.27,6.1901,24.26,9.61c9.47,4.5,19.14,8.5701,28.59,13.12c32.37,16.16,63.39,35.4,90.76,59.1901
		c27.62,23.8799,51.51,52.6299,67.21,85.7599c12.7001,26.78,19.6001,56.28,19.9701,85.92
		C1308.75,854.77,1303.1899,870.99,1296.0601,886.03z"/>
	<path fill="#F7B136" d="M1117.5601,425.76c19.1-2.11,38.8999,3.58,54.0099,15.45c11.55,8.94,20.42,21.27,25.27,35.05
		c6.79,19.03,5.91,40.68-2.48,59.07c-7.73,17.15-21.77,31.42-38.95,39.12c-16.6,7.54-35.9401,8.82-53.36,3.46
		c-17.2001-5.21-32.29-16.86-41.88-32.04c-14.5701-22.64-16.0801-52.83-4.05-76.88C1067.48,445.39,1091.36,428.17,1117.5601,425.76
		 M1076.98,461.42c-1.6799,1.59-3.11,3.46-4.21,5.49c-4.47,6.35-7.53,13.65-9.4401,21.15c-5.5699,21.87,1.0801,46.5,17.4801,62.13
		c15.48,15.35,39.34,21.5,60.2799,15.28c18.52-5.11,34.12-19.1899,41.61-36.8199c7.54-17.38,7.05-38.03-1.4399-54.97
		c-7.72-15.75-22.29-28-39.21-32.68C1118.83,434.25,1092.2,442.69,1076.98,461.42z"/>
	<path d="M1076.98,461.42c15.22-18.73,41.85-27.17,65.0701-20.42c16.9199,4.68,31.49,16.93,39.21,32.68
		c8.49,16.94,8.98,37.59,1.4399,54.97c-7.49,17.63-23.09,31.71-41.61,36.8199c-20.9399,6.22-44.7999,0.07-60.2799-15.28
		c-16.4-15.63-23.05-40.26-17.4801-62.13c1.91-7.5,4.9701-14.8,9.4401-21.15c-2.4301,5.19-2.8201,11.46-0.28,16.69
		c2.98,6.65,10.24,11.1,17.55,10.48c9.71-0.31,17.83-9.47,17.39-19.1c0.13-9.37-7.9501-18.09-17.41-18.16
		C1085.22,456.42,1080.64,458.47,1076.98,461.42z"/>
	<path fill="#F0F4F2" d="M1076.98,461.42c3.66-2.95,8.24-5,13.04-4.6c9.46,0.07,17.54,8.79,17.41,18.16
		c0.4399,9.63-7.6801,18.79-17.39,19.1c-7.3101,0.62-14.5701-3.83-17.55-10.48c-2.54-5.23-2.15-11.5,0.28-16.69
		C1073.87,464.88,1075.3,463.01,1076.98,461.42z"/>
	<path fill="#F7B136" d="M844.81,541.69c34.46-28,68.84-56.11,103.22-84.2c20.17,35.24,40.49,70.39,60.73,105.59
		c2.66,4.65,5.31,9.31,8.04,13.93c-31.76,12.55-63.52,25.09-95.25,37.72C895.97,590.38,870.45,565.97,844.81,541.69z"/>
	<path fill="#0098D8" d="M716.31,551.38c42.04-8.12,84.99-11.31,127.77-10.36l0.73,0.67c25.64,24.28,51.16,48.69,76.74,73.04
		c31.73-12.63,63.49-25.17,95.25-37.72c-2.73-4.62-5.38-9.28-8.04-13.93c23.58,5.47,46.54,13.28,69.36,21.29
		c8.1901,2.92,16.27,6.19,24.26,9.61c9.47,4.5,19.14,8.57,28.59,13.12c32.37,16.16,63.39,35.4,90.76,59.19
		c27.62,23.88,51.51,52.63,67.21,85.76c12.7001,26.78,19.6001,56.28,19.9701,85.92c-0.16,16.8-5.7201,33.02-12.85,48.0601
		c-16.8201,35.41-42.13,65.85-68.3,94.6899c-11.6801,12-23.49,23.8701-35.5,35.55c-27.13,25.4-55.73,49.26-85.65,71.33
		c-30.8099,22.8-62.86,43.98-96.36,62.64c-32.59,18.02-66.5,34.12-102.37,44.48c-19.13,5.35-38.98,9.12-58.92,8.11
		c-19.33-1.3099-37.76-8.2899-54.96-16.85c-33.77-17.61-63.67-41.72-91.3-67.73c-24.47-23.5601-47.61-48.54-68.67-75.21
		C606.48,1008.75,581.6,972.3,559.98,933.99c-13.46-23.62-25.35-48.13-35.55-73.33c-13.3-33.77-23.83-69.18-25.36-105.65
		c-1.75-36.21,10.33-72.32,31.2-101.69c18.47-25.56,43.34-45.98,70.71-61.41C636.69,571.81,676.23,559.24,716.31,551.38z"/>
	<path opacity="0.77" fill="#0AACC2" enable-background="new    " d="M344.77,911.23c2.6-2.56,5.54-4.71,8.42-6.93
		c0.22,1.22,0.41,2.45,0.59,3.69l-0.29,0.51C350.73,909.8,347.68,910.34,344.77,911.23z"/>
	<path fill="#F7B136" d="M620.79,1357.77c11.18-4.99,21.85-11.74,29.6-21.37c17.95,10.2899,36.48,19.58,55.53,27.6699
		c-9.57,60.4401-19.25,120.89-30.95,180.9701c-0.55,2.61-0.75,5.5599-2.8799,7.49c-4.54-3.38-6.54-8.9-8.88-13.8301
		c-4.23-10-7.91-20.2799-10.44-30.84c-1.81-10.83-1.66-21.85-1.96-32.78c-0.18-16.6499-0.07-33.2999-0.74-49.9299
		c-0.51-6.92-0.63-14-2.67-20.6801c-0.44-1.83-1.75-3.1699-3.28-4.1c-6.32,4.85-8.27,13.1-11.4,20.05
		c-14.5099,38.9099-25.87,78.8999-38.15,118.5499c-10.38,33.89-20.36,67.9301-31.95,101.4301c-2.44,6.8199-4.86,13.6899-8.02,20.22
		c-0.75,1.42-1.7599,3.1901-3.64,3.11c-3.51-1.98-4.65-6.16-6.09-9.62c-3.64-10.6899-5.69-21.88-6.9-33.08
		c-1.27-11.35,0.66-22.7001,2.13-33.92c5.29-35.87,13.1801-71.3099,18.26-107.21c0.85-6.9601,1.89-14,1.29-21.02
		c-0.08-2.34-2.54-4.03-4.75-3.13c-4.96,1.55-8.96,5.0699-12.85,8.39c-7.48,6.89-14.56,14.48-19.41,23.5
		c-17.1,32.1899-28.92,66.87-45.81,99.16c-2.21,3.6499-4.05,8.0199-7.89,10.26c-2.56,1.2-4.51-1.6201-5.36-3.64
		c-2.83-6.78-3.41-14.2201-4.06-21.4501c-0.7-12.0599-0.75-24.2899,1.88-36.14c4.01-19.2899,10.11-38.0699,16.73-56.61
		c6.89-18.88,14.65-37.6,25.44-54.64c8.49-13.4099,18.82-25.86,31.62-35.37c6.33-4.8199,13.76-7.8999,21.22-10.51
		C577.75,1371.37,600.12,1367.02,620.79,1357.77z"/>
	<path fill="#F7B136" d="M952.85,1400.38c17.77-1.79,35.47-4.1901,53.09-7.0601c7.61,18.05,15.42,36.16,25.97,52.7301
		c4.9099,7.51,10.33,14.95,17.65,20.2999c11.9299,8.75,26.8799,11.92,41.36,13.25c18.6499,1.6801,37.38,0.37,56.0699,0.67
		c9.41,0.2,19.02,0.65,28,3.73c14.58,5.03,27.78,13.4301,39.59,23.24c15.6801,13,28.89,28.63,41.24,44.74
		c11.3401,14.99,22.2401,30.36,31.7401,46.61c8.9299,14.5901,14.1599,31.15,17.1599,47.91c0.66,5.04,1.65,10.36,0.12,15.34
		c-0.59,1.99-2.9,3.1801-4.7899,2.12c-5.16-2.5499-8.9601-7.0599-13.02-11c-15.29-16.08-29.28-33.3199-43.9-49.99
		c-9.0601-10.34-17.97-20.87-28.09-30.1899c-6.4401-5.8301-14.0601-10.16-21.78-14.04c-4.86-2.25-9.88-4.55-15.28-4.98
		c-2.4299-0.39-5.21,1.45-4.46,4.16c1.27,6.5399,4.3099,12.5699,6.9199,18.6599c17.4801,37.3501,38.6001,72.89,55.4801,110.52
		c4.45,9.4,7.13,19.51,8.45,29.8101c1.33,9.5699,2.13,19.3099,1.13,28.96c-0.48,2.24-0.8199,5.38-3.4399,6.12
		c-2.8701-0.77-4.51-3.5-6.4301-5.51c-10.9401-13.28-20.66-27.49-30.5601-41.54c-33.7899-48.6499-65.96-98.4299-100.62-146.47
		c-6-8.22-12.0499-16.4199-18.7899-24.0499c-2.8101-3.2001-5.9-6.28-9.8401-8.03c-2.62,1.59-2.4199,4.84-2.22,7.52
		c0.55,6.3099,2.16,12.46,3.73,18.58c6.1001,23.13,14.14,45.7,19.9501,68.91c3.3099,11.9,2.4,24.39,1.8099,36.58
		c-0.73,6.87-0.8099,14.11-3.77,20.49c-1.23,2.75-3.6799,0.29-4.37-1.4399c-16.38-29.89-31.74-60.3401-47.1599-90.74
		C1012.74,1524.6899,982.39,1462.73,952.85,1400.38z"/>
</g>
</svg>
